<svg width="78" height="48" viewBox="0 0 78 48" fill="none" xmlns="http://www.w3.org/2000/svg">
<path fill-rule="evenodd" clip-rule="evenodd" d="M10.5 11C10.5 10.7239 10.7239 10.5 11 10.5H55V7.5H11C9.067 7.5 7.5 9.067 7.5 11V15H10.5V11ZM65.5 20V44H19.5C19.8102 45.2408 19.4466 46.5534 18.5423 47.4577L18 48H65.5L72.8119 46.4607C74.1943 46.1696 75.3682 45.2635 76 44H68.5V20H65.5Z" fill="white"/>
<path fill-rule="evenodd" clip-rule="evenodd" d="M2 44V20H16V44H2ZM3 16C1.34315 16 0 17.3431 0 19V45C0 46.6569 1.34315 48 3 48H15C16.6569 48 18 46.6569 18 45V19C18 17.3431 16.6569 16 15 16H3Z" fill="white"/>
<path fill-rule="evenodd" clip-rule="evenodd" d="M67 18C73.0751 18 78 13.9706 78 9C78 4.02944 73.0751 0 67 0C60.9249 0 56 4.02944 56 9C56 11.981 57.7714 14.6236 60.5 16.2614V16.8559C60.5 17.2825 60.4312 17.7063 60.2963 18.1111C60.1014 18.6957 59.7732 19.2268 59.3374 19.6626L59 20H59.6972C60.8727 20 62.0219 19.6521 63 19L64.6159 17.788C65.3836 17.9268 66.1813 18 67 18Z" fill="white"/>
</svg>
